# xmcd CD database file
#
# Track frame offsets:
#	150
#	14508
#	30870
#	41941
#	57757
#	72902
#	89354
#	104330
#	117696
#	143690
#	157459
#	166424
#	179932
#	193921
#
# Disc length: 2734 seconds
#
# Revision: 0
# Processed by: cddbd v1.5PL3 Copyright (c) Steve Scherf et al.
# Submitted via: CDex 1.51
#
DISCID=d30aac0e
DTITLE=Ella Fitzgerald - Early Years
DYEAR=1999
DGENRE=Jazz
TTITLE0=Ella Fitzgerald-Crying my Heart out of You
TTITLE1=Ella Fitzgerald-It's a Blue World
TTITLE2=Ella Fitzgerald-That Old Black Magic
TTITLE3=Ella Fitzgerald-Who Ya Hunchin'
TTITLE4=Ella Fitzgerald-Chewin' Gum
TTITLE5=Ella Fitzgerald-Goin' and Gettin' It
TTITLE6=Ella Fitzgerald-Love and Kisses
TTITLE7=Ella Fitzgerald-Sugar Blues
TTITLE8=Ella Fitzgerald-Cheek to Cheek
TTITLE9=Ella Fitzgerald-Basin Street Blues
TTITLE10=Ella Fitzgerald-Lover Come Back to Me
TTITLE11=Ella Fitzgerald-We Can't go on This Way
TTITLE12=Ella Fitzgerald-Stairway to the Stars
TTITLE13=Ella Fitzgerald-A Tisket, A Tasket
EXTD=YEAR: 1999
EXTT0=
EXTT1=
EXTT2=
EXTT3=
EXTT4=
EXTT5=
EXTT6=
EXTT7=
EXTT8=
EXTT9=
EXTT10=
EXTT11=
EXTT12=
EXTT13=
PLAYORDER=
